# xmcd CD database file
# Copyright (C) 1997 Ti Kan
# 
# Track frame offsets:
#     150
#     12922
#     30785
#     48395
#     60605
#     74762
#     91870
#     104422
#     123547
#     140925
#     155877
#     170947
#     188327
#     201462
#     216525
#     231350
# 
# Disc length: 3280 seconds
# 
# Revision: 1
# Processed by: cddbd v1.4b41PL1 Copyright (c) Steve Scherf et al.
# Submitted via: DiscPlay 4.0.4
# 
DISCID=f70cce10
DTITLE=Various Artist - Born To Boogie Vol. 2
DYEAR=1900
DGENRE=
TTITLE0=Streets Of Bakersfield  /Dwight Yoakum and Buck Owens
TTITLE1=Fallin' Again  /Alabama
TTITLE2=Button Off My Shirt  /Ronnie Milsap
TTITLE3=Strong Enough To Bend  /Tanya Tucker
TTITLE4=Desperately  /Don Williams
TTITLE5=Wilder Days  /Baillie and The Boys
TTITLE6=Paint The Town and Hang The Moon  /J. C. Crowley
TTITLE7=Tear Stained Letter  /Jo-El Sonnier
TTITLE8=Workin' Man (No Where To Go)  /The Nitty Gritty Dirt Band
TTITLE9=The Wanderer  /Eddie Rabbitt
TTITLE10=Blue Side Of Town  /Patty Loveless
TTITLE11=Honey I Dare You  /Southern Pacific
TTITLE12=Blue To The Bone  /Sweethearts Of The Rodeo
TTITLE13=Big Love  /The Bellamy Brothers
TTITLE14=Darlene  /T. Graham Brown
TTITLE15=Burning A Hole In My Shirt  /Skip Ewing
EXTD=
EXTT0=
EXTT1=
EXTT2=
EXTT3=
EXTT4=
EXTT5=
EXTT6=
EXTT7=
EXTT8=
EXTT9=
EXTT10=
EXTT11=
EXTT12=
EXTT13=
EXTT14=
EXTT15=
PLAYORDER=
